<mxfile host="app.diagrams.net" modified="2022-04-30T16:48:27.294Z" agent="5.0 (Macintosh; Intel Mac OS X 10_15_7) AppleWebKit/537.36 (KHTML, like Gecko) Chrome/100.0.4896.127 Safari/537.36" etag="4a6tBMt5fWlEy4pzZh6m" version="17.5.0" type="github">
  <diagram id="xMcO6NegRns5GpdnaejM" name="第 1 页">
    <mxGraphModel dx="1426" dy="794" grid="0" gridSize="10" guides="1" tooltips="1" connect="1" arrows="1" fold="1" page="1" pageScale="1" pageWidth="827" pageHeight="1169" math="0" shadow="1">
      <root>
        <mxCell id="0" />
        <mxCell id="1" parent="0" />
        <mxCell id="xiwiBXfIHb9HTJqX0gxW-41" style="edgeStyle=orthogonalEdgeStyle;curved=1;rounded=0;orthogonalLoop=1;jettySize=auto;html=1;entryX=0.483;entryY=0.125;entryDx=0;entryDy=0;entryPerimeter=0;exitX=0.5;exitY=1;exitDx=0;exitDy=0;" parent="1" source="xiwiBXfIHb9HTJqX0gxW-1" target="xiwiBXfIHb9HTJqX0gxW-5" edge="1">
          <mxGeometry relative="1" as="geometry" />
        </mxCell>
        <mxCell id="xiwiBXfIHb9HTJqX0gxW-1" value="租户1" style="rounded=0;whiteSpace=wrap;html=1;" parent="1" vertex="1">
          <mxGeometry x="115" y="160" width="120" height="60" as="geometry" />
        </mxCell>
        <mxCell id="xiwiBXfIHb9HTJqX0gxW-2" value="租户2" style="rounded=0;whiteSpace=wrap;html=1;" parent="1" vertex="1">
          <mxGeometry x="275" y="160" width="120" height="60" as="geometry" />
        </mxCell>
        <mxCell id="xiwiBXfIHb9HTJqX0gxW-57" style="edgeStyle=orthogonalEdgeStyle;curved=1;rounded=0;orthogonalLoop=1;jettySize=auto;html=1;entryX=0.483;entryY=0.1;entryDx=0;entryDy=0;entryPerimeter=0;" parent="1" source="xiwiBXfIHb9HTJqX0gxW-3" target="xiwiBXfIHb9HTJqX0gxW-5" edge="1">
          <mxGeometry relative="1" as="geometry" />
        </mxCell>
        <mxCell id="xiwiBXfIHb9HTJqX0gxW-3" value="租户3" style="rounded=0;whiteSpace=wrap;html=1;" parent="1" vertex="1">
          <mxGeometry x="435" y="160" width="120" height="60" as="geometry" />
        </mxCell>
        <mxCell id="xiwiBXfIHb9HTJqX0gxW-4" value="租户..." style="rounded=0;whiteSpace=wrap;html=1;" parent="1" vertex="1">
          <mxGeometry x="595" y="160" width="120" height="60" as="geometry" />
        </mxCell>
        <mxCell id="xiwiBXfIHb9HTJqX0gxW-42" style="edgeStyle=orthogonalEdgeStyle;curved=1;rounded=0;orthogonalLoop=1;jettySize=auto;html=1;entryX=0.5;entryY=0;entryDx=0;entryDy=0;" parent="1" source="xiwiBXfIHb9HTJqX0gxW-5" target="xiwiBXfIHb9HTJqX0gxW-7" edge="1">
          <mxGeometry relative="1" as="geometry" />
        </mxCell>
        <mxCell id="xiwiBXfIHb9HTJqX0gxW-5" value="公网" style="ellipse;shape=cloud;whiteSpace=wrap;html=1;" parent="1" vertex="1">
          <mxGeometry x="341" y="280" width="120" height="80" as="geometry" />
        </mxCell>
        <mxCell id="xiwiBXfIHb9HTJqX0gxW-6" value="" style="rounded=0;whiteSpace=wrap;html=1;" parent="1" vertex="1">
          <mxGeometry x="41" y="440" width="750" height="510" as="geometry" />
        </mxCell>
        <mxCell id="xiwiBXfIHb9HTJqX0gxW-44" style="edgeStyle=orthogonalEdgeStyle;curved=1;rounded=0;orthogonalLoop=1;jettySize=auto;html=1;entryX=0.5;entryY=0;entryDx=0;entryDy=0;exitX=0.5;exitY=1;exitDx=0;exitDy=0;" parent="1" source="xiwiBXfIHb9HTJqX0gxW-7" target="xiwiBXfIHb9HTJqX0gxW-8" edge="1">
          <mxGeometry relative="1" as="geometry" />
        </mxCell>
        <mxCell id="xiwiBXfIHb9HTJqX0gxW-46" style="edgeStyle=orthogonalEdgeStyle;curved=1;rounded=0;orthogonalLoop=1;jettySize=auto;html=1;entryX=0.5;entryY=0;entryDx=0;entryDy=0;" parent="1" source="xiwiBXfIHb9HTJqX0gxW-7" target="xiwiBXfIHb9HTJqX0gxW-35" edge="1">
          <mxGeometry relative="1" as="geometry" />
        </mxCell>
        <mxCell id="xiwiBXfIHb9HTJqX0gxW-47" style="edgeStyle=orthogonalEdgeStyle;curved=1;rounded=0;orthogonalLoop=1;jettySize=auto;html=1;entryX=0.5;entryY=0;entryDx=0;entryDy=0;" parent="1" source="xiwiBXfIHb9HTJqX0gxW-7" target="xiwiBXfIHb9HTJqX0gxW-37" edge="1">
          <mxGeometry relative="1" as="geometry" />
        </mxCell>
        <mxCell id="xiwiBXfIHb9HTJqX0gxW-48" style="edgeStyle=orthogonalEdgeStyle;curved=1;rounded=0;orthogonalLoop=1;jettySize=auto;html=1;entryX=0.5;entryY=0;entryDx=0;entryDy=0;exitX=0.5;exitY=1;exitDx=0;exitDy=0;" parent="1" source="xiwiBXfIHb9HTJqX0gxW-7" target="xiwiBXfIHb9HTJqX0gxW-39" edge="1">
          <mxGeometry relative="1" as="geometry" />
        </mxCell>
        <mxCell id="xiwiBXfIHb9HTJqX0gxW-7" value="集权入口" style="rounded=0;whiteSpace=wrap;html=1;" parent="1" vertex="1">
          <mxGeometry x="341" y="410" width="120" height="60" as="geometry" />
        </mxCell>
        <mxCell id="xiwiBXfIHb9HTJqX0gxW-50" style="edgeStyle=orthogonalEdgeStyle;curved=1;rounded=0;orthogonalLoop=1;jettySize=auto;html=1;entryX=0.5;entryY=0;entryDx=0;entryDy=0;entryPerimeter=0;" parent="1" source="xiwiBXfIHb9HTJqX0gxW-8" target="xiwiBXfIHb9HTJqX0gxW-13" edge="1">
          <mxGeometry relative="1" as="geometry" />
        </mxCell>
        <mxCell id="xiwiBXfIHb9HTJqX0gxW-51" style="edgeStyle=orthogonalEdgeStyle;curved=1;rounded=0;orthogonalLoop=1;jettySize=auto;html=1;entryX=0.5;entryY=0;entryDx=0;entryDy=0;entryPerimeter=0;exitX=0.5;exitY=1;exitDx=0;exitDy=0;" parent="1" source="xiwiBXfIHb9HTJqX0gxW-8" target="xiwiBXfIHb9HTJqX0gxW-14" edge="1">
          <mxGeometry relative="1" as="geometry" />
        </mxCell>
        <mxCell id="xiwiBXfIHb9HTJqX0gxW-52" style="edgeStyle=orthogonalEdgeStyle;curved=1;rounded=0;orthogonalLoop=1;jettySize=auto;html=1;entryX=0.5;entryY=0;entryDx=0;entryDy=0;entryPerimeter=0;exitX=0.5;exitY=1;exitDx=0;exitDy=0;" parent="1" source="xiwiBXfIHb9HTJqX0gxW-8" target="xiwiBXfIHb9HTJqX0gxW-15" edge="1">
          <mxGeometry relative="1" as="geometry" />
        </mxCell>
        <mxCell id="xiwiBXfIHb9HTJqX0gxW-53" style="edgeStyle=orthogonalEdgeStyle;curved=1;rounded=0;orthogonalLoop=1;jettySize=auto;html=1;entryX=0.5;entryY=0;entryDx=0;entryDy=0;entryPerimeter=0;exitX=0.5;exitY=1;exitDx=0;exitDy=0;" parent="1" source="xiwiBXfIHb9HTJqX0gxW-8" target="xiwiBXfIHb9HTJqX0gxW-16" edge="1">
          <mxGeometry relative="1" as="geometry" />
        </mxCell>
        <mxCell id="xiwiBXfIHb9HTJqX0gxW-8" value="app-1" style="rounded=0;whiteSpace=wrap;html=1;verticalAlign=top;" parent="1" vertex="1">
          <mxGeometry x="104" y="590" width="120" height="120" as="geometry" />
        </mxCell>
        <mxCell id="xiwiBXfIHb9HTJqX0gxW-13" value="数据库-1" style="shape=cylinder3;whiteSpace=wrap;html=1;boundedLbl=1;backgroundOutline=1;size=15;" parent="1" vertex="1">
          <mxGeometry x="134" y="850" width="60" height="80" as="geometry" />
        </mxCell>
        <mxCell id="xiwiBXfIHb9HTJqX0gxW-14" value="数据库-2" style="shape=cylinder3;whiteSpace=wrap;html=1;boundedLbl=1;backgroundOutline=1;size=15;" parent="1" vertex="1">
          <mxGeometry x="288" y="850" width="60" height="80" as="geometry" />
        </mxCell>
        <mxCell id="xiwiBXfIHb9HTJqX0gxW-15" value="数据库-3" style="shape=cylinder3;whiteSpace=wrap;html=1;boundedLbl=1;backgroundOutline=1;size=15;" parent="1" vertex="1">
          <mxGeometry x="448" y="850" width="60" height="80" as="geometry" />
        </mxCell>
        <mxCell id="xiwiBXfIHb9HTJqX0gxW-16" value="数据库-..." style="shape=cylinder3;whiteSpace=wrap;html=1;boundedLbl=1;backgroundOutline=1;size=15;" parent="1" vertex="1">
          <mxGeometry x="608" y="850" width="60" height="80" as="geometry" />
        </mxCell>
        <mxCell id="xiwiBXfIHb9HTJqX0gxW-66" style="edgeStyle=orthogonalEdgeStyle;curved=1;rounded=0;orthogonalLoop=1;jettySize=auto;html=1;entryX=0.4;entryY=0.1;entryDx=0;entryDy=0;entryPerimeter=0;exitX=0.5;exitY=1;exitDx=0;exitDy=0;" parent="1" source="xiwiBXfIHb9HTJqX0gxW-18" target="xiwiBXfIHb9HTJqX0gxW-22" edge="1">
          <mxGeometry relative="1" as="geometry" />
        </mxCell>
        <mxCell id="xiwiBXfIHb9HTJqX0gxW-18" value="租户1" style="rounded=0;whiteSpace=wrap;html=1;" parent="1" vertex="1">
          <mxGeometry x="115" y="1330" width="120" height="60" as="geometry" />
        </mxCell>
        <mxCell id="xiwiBXfIHb9HTJqX0gxW-67" style="edgeStyle=orthogonalEdgeStyle;curved=1;rounded=0;orthogonalLoop=1;jettySize=auto;html=1;entryX=0.4;entryY=0.1;entryDx=0;entryDy=0;entryPerimeter=0;" parent="1" source="xiwiBXfIHb9HTJqX0gxW-19" target="xiwiBXfIHb9HTJqX0gxW-22" edge="1">
          <mxGeometry relative="1" as="geometry" />
        </mxCell>
        <mxCell id="xiwiBXfIHb9HTJqX0gxW-19" value="租户2" style="rounded=0;whiteSpace=wrap;html=1;" parent="1" vertex="1">
          <mxGeometry x="275" y="1330" width="120" height="60" as="geometry" />
        </mxCell>
        <mxCell id="xiwiBXfIHb9HTJqX0gxW-68" style="edgeStyle=orthogonalEdgeStyle;curved=1;rounded=0;orthogonalLoop=1;jettySize=auto;html=1;entryX=0.4;entryY=0.1;entryDx=0;entryDy=0;entryPerimeter=0;" parent="1" source="xiwiBXfIHb9HTJqX0gxW-20" target="xiwiBXfIHb9HTJqX0gxW-22" edge="1">
          <mxGeometry relative="1" as="geometry" />
        </mxCell>
        <mxCell id="xiwiBXfIHb9HTJqX0gxW-20" value="租户3" style="rounded=0;whiteSpace=wrap;html=1;" parent="1" vertex="1">
          <mxGeometry x="435" y="1330" width="120" height="60" as="geometry" />
        </mxCell>
        <mxCell id="xiwiBXfIHb9HTJqX0gxW-69" style="edgeStyle=orthogonalEdgeStyle;curved=1;rounded=0;orthogonalLoop=1;jettySize=auto;html=1;entryX=0.4;entryY=0.1;entryDx=0;entryDy=0;entryPerimeter=0;exitX=0.5;exitY=1;exitDx=0;exitDy=0;" parent="1" source="xiwiBXfIHb9HTJqX0gxW-21" target="xiwiBXfIHb9HTJqX0gxW-22" edge="1">
          <mxGeometry relative="1" as="geometry" />
        </mxCell>
        <mxCell id="xiwiBXfIHb9HTJqX0gxW-21" value="租户..." style="rounded=0;whiteSpace=wrap;html=1;" parent="1" vertex="1">
          <mxGeometry x="595" y="1330" width="120" height="60" as="geometry" />
        </mxCell>
        <mxCell id="xiwiBXfIHb9HTJqX0gxW-70" style="edgeStyle=orthogonalEdgeStyle;curved=1;rounded=0;orthogonalLoop=1;jettySize=auto;html=1;entryX=0.5;entryY=0;entryDx=0;entryDy=0;" parent="1" source="xiwiBXfIHb9HTJqX0gxW-22" target="xiwiBXfIHb9HTJqX0gxW-24" edge="1">
          <mxGeometry relative="1" as="geometry" />
        </mxCell>
        <mxCell id="xiwiBXfIHb9HTJqX0gxW-22" value="公网" style="ellipse;shape=cloud;whiteSpace=wrap;html=1;" parent="1" vertex="1">
          <mxGeometry x="341" y="1450" width="120" height="80" as="geometry" />
        </mxCell>
        <mxCell id="xiwiBXfIHb9HTJqX0gxW-23" value="" style="rounded=0;whiteSpace=wrap;html=1;" parent="1" vertex="1">
          <mxGeometry x="41" y="1610" width="750" height="510" as="geometry" />
        </mxCell>
        <mxCell id="xiwiBXfIHb9HTJqX0gxW-71" style="edgeStyle=orthogonalEdgeStyle;curved=1;rounded=0;orthogonalLoop=1;jettySize=auto;html=1;entryX=0.5;entryY=0;entryDx=0;entryDy=0;exitX=0.5;exitY=1;exitDx=0;exitDy=0;" parent="1" source="xiwiBXfIHb9HTJqX0gxW-24" target="xiwiBXfIHb9HTJqX0gxW-25" edge="1">
          <mxGeometry relative="1" as="geometry" />
        </mxCell>
        <mxCell id="xiwiBXfIHb9HTJqX0gxW-72" style="edgeStyle=orthogonalEdgeStyle;curved=1;rounded=0;orthogonalLoop=1;jettySize=auto;html=1;entryX=0.5;entryY=0;entryDx=0;entryDy=0;" parent="1" source="xiwiBXfIHb9HTJqX0gxW-24" target="xiwiBXfIHb9HTJqX0gxW-26" edge="1">
          <mxGeometry relative="1" as="geometry" />
        </mxCell>
        <mxCell id="xiwiBXfIHb9HTJqX0gxW-73" style="edgeStyle=orthogonalEdgeStyle;curved=1;rounded=0;orthogonalLoop=1;jettySize=auto;html=1;entryX=0.5;entryY=0;entryDx=0;entryDy=0;" parent="1" source="xiwiBXfIHb9HTJqX0gxW-24" target="xiwiBXfIHb9HTJqX0gxW-27" edge="1">
          <mxGeometry relative="1" as="geometry" />
        </mxCell>
        <mxCell id="xiwiBXfIHb9HTJqX0gxW-74" style="edgeStyle=orthogonalEdgeStyle;curved=1;rounded=0;orthogonalLoop=1;jettySize=auto;html=1;entryX=0.5;entryY=0;entryDx=0;entryDy=0;exitX=0.5;exitY=1;exitDx=0;exitDy=0;" parent="1" source="xiwiBXfIHb9HTJqX0gxW-24" target="xiwiBXfIHb9HTJqX0gxW-28" edge="1">
          <mxGeometry relative="1" as="geometry" />
        </mxCell>
        <mxCell id="xiwiBXfIHb9HTJqX0gxW-24" value="集权入口" style="rounded=0;whiteSpace=wrap;html=1;" parent="1" vertex="1">
          <mxGeometry x="341" y="1580" width="120" height="60" as="geometry" />
        </mxCell>
        <mxCell id="xiwiBXfIHb9HTJqX0gxW-58" style="edgeStyle=orthogonalEdgeStyle;curved=1;rounded=0;orthogonalLoop=1;jettySize=auto;html=1;entryX=0.5;entryY=0;entryDx=0;entryDy=0;" parent="1" source="xiwiBXfIHb9HTJqX0gxW-25" target="xiwiBXfIHb9HTJqX0gxW-33" edge="1">
          <mxGeometry relative="1" as="geometry" />
        </mxCell>
        <mxCell id="xiwiBXfIHb9HTJqX0gxW-25" value="app-1" style="rounded=0;whiteSpace=wrap;html=1;" parent="1" vertex="1">
          <mxGeometry x="104" y="1760" width="120" height="60" as="geometry" />
        </mxCell>
        <mxCell id="xiwiBXfIHb9HTJqX0gxW-59" style="edgeStyle=orthogonalEdgeStyle;curved=1;rounded=0;orthogonalLoop=1;jettySize=auto;html=1;entryX=0.5;entryY=0;entryDx=0;entryDy=0;" parent="1" source="xiwiBXfIHb9HTJqX0gxW-26" target="xiwiBXfIHb9HTJqX0gxW-33" edge="1">
          <mxGeometry relative="1" as="geometry" />
        </mxCell>
        <mxCell id="xiwiBXfIHb9HTJqX0gxW-26" value="app-2" style="rounded=0;whiteSpace=wrap;html=1;" parent="1" vertex="1">
          <mxGeometry x="258" y="1760" width="120" height="60" as="geometry" />
        </mxCell>
        <mxCell id="xiwiBXfIHb9HTJqX0gxW-60" style="edgeStyle=orthogonalEdgeStyle;curved=1;rounded=0;orthogonalLoop=1;jettySize=auto;html=1;entryX=0.5;entryY=0;entryDx=0;entryDy=0;" parent="1" source="xiwiBXfIHb9HTJqX0gxW-27" target="xiwiBXfIHb9HTJqX0gxW-33" edge="1">
          <mxGeometry relative="1" as="geometry" />
        </mxCell>
        <mxCell id="xiwiBXfIHb9HTJqX0gxW-27" value="app-3" style="rounded=0;whiteSpace=wrap;html=1;" parent="1" vertex="1">
          <mxGeometry x="418" y="1760" width="120" height="60" as="geometry" />
        </mxCell>
        <mxCell id="xiwiBXfIHb9HTJqX0gxW-61" style="edgeStyle=orthogonalEdgeStyle;curved=1;rounded=0;orthogonalLoop=1;jettySize=auto;html=1;entryX=0.5;entryY=0;entryDx=0;entryDy=0;" parent="1" source="xiwiBXfIHb9HTJqX0gxW-28" target="xiwiBXfIHb9HTJqX0gxW-33" edge="1">
          <mxGeometry relative="1" as="geometry" />
        </mxCell>
        <mxCell id="xiwiBXfIHb9HTJqX0gxW-28" value="app-..." style="rounded=0;whiteSpace=wrap;html=1;" parent="1" vertex="1">
          <mxGeometry x="578" y="1760" width="120" height="60" as="geometry" />
        </mxCell>
        <mxCell id="xiwiBXfIHb9HTJqX0gxW-29" value="数据库-1" style="shape=cylinder3;whiteSpace=wrap;html=1;boundedLbl=1;backgroundOutline=1;size=15;" parent="1" vertex="1">
          <mxGeometry x="134" y="1940" width="60" height="80" as="geometry" />
        </mxCell>
        <mxCell id="xiwiBXfIHb9HTJqX0gxW-30" value="数据库-2" style="shape=cylinder3;whiteSpace=wrap;html=1;boundedLbl=1;backgroundOutline=1;size=15;" parent="1" vertex="1">
          <mxGeometry x="288" y="1940" width="60" height="80" as="geometry" />
        </mxCell>
        <mxCell id="xiwiBXfIHb9HTJqX0gxW-31" value="数据库-3" style="shape=cylinder3;whiteSpace=wrap;html=1;boundedLbl=1;backgroundOutline=1;size=15;" parent="1" vertex="1">
          <mxGeometry x="448" y="1940" width="60" height="80" as="geometry" />
        </mxCell>
        <mxCell id="xiwiBXfIHb9HTJqX0gxW-32" value="数据库-..." style="shape=cylinder3;whiteSpace=wrap;html=1;boundedLbl=1;backgroundOutline=1;size=15;" parent="1" vertex="1">
          <mxGeometry x="608" y="1940" width="60" height="80" as="geometry" />
        </mxCell>
        <mxCell id="xiwiBXfIHb9HTJqX0gxW-62" style="edgeStyle=orthogonalEdgeStyle;curved=1;rounded=0;orthogonalLoop=1;jettySize=auto;html=1;entryX=0.5;entryY=0;entryDx=0;entryDy=0;entryPerimeter=0;" parent="1" source="xiwiBXfIHb9HTJqX0gxW-33" target="xiwiBXfIHb9HTJqX0gxW-29" edge="1">
          <mxGeometry relative="1" as="geometry" />
        </mxCell>
        <mxCell id="xiwiBXfIHb9HTJqX0gxW-63" style="edgeStyle=orthogonalEdgeStyle;curved=1;rounded=0;orthogonalLoop=1;jettySize=auto;html=1;entryX=0.5;entryY=0;entryDx=0;entryDy=0;entryPerimeter=0;" parent="1" source="xiwiBXfIHb9HTJqX0gxW-33" target="xiwiBXfIHb9HTJqX0gxW-30" edge="1">
          <mxGeometry relative="1" as="geometry" />
        </mxCell>
        <mxCell id="xiwiBXfIHb9HTJqX0gxW-64" style="edgeStyle=orthogonalEdgeStyle;curved=1;rounded=0;orthogonalLoop=1;jettySize=auto;html=1;entryX=0.5;entryY=0;entryDx=0;entryDy=0;entryPerimeter=0;" parent="1" source="xiwiBXfIHb9HTJqX0gxW-33" target="xiwiBXfIHb9HTJqX0gxW-31" edge="1">
          <mxGeometry relative="1" as="geometry" />
        </mxCell>
        <mxCell id="xiwiBXfIHb9HTJqX0gxW-65" style="edgeStyle=orthogonalEdgeStyle;curved=1;rounded=0;orthogonalLoop=1;jettySize=auto;html=1;entryX=0.5;entryY=0;entryDx=0;entryDy=0;entryPerimeter=0;" parent="1" source="xiwiBXfIHb9HTJqX0gxW-33" target="xiwiBXfIHb9HTJqX0gxW-32" edge="1">
          <mxGeometry relative="1" as="geometry" />
        </mxCell>
        <mxCell id="xiwiBXfIHb9HTJqX0gxW-33" value="分库分表" style="rounded=0;whiteSpace=wrap;html=1;" parent="1" vertex="1">
          <mxGeometry x="102.5" y="1860" width="597" height="30" as="geometry" />
        </mxCell>
        <mxCell id="xiwiBXfIHb9HTJqX0gxW-34" value="分库分表&lt;br&gt;orm/jdbc" style="rounded=0;whiteSpace=wrap;html=1;" parent="1" vertex="1">
          <mxGeometry x="115" y="650" width="97" height="50" as="geometry" />
        </mxCell>
        <mxCell id="xiwiBXfIHb9HTJqX0gxW-35" value="app-1" style="rounded=0;whiteSpace=wrap;html=1;verticalAlign=top;" parent="1" vertex="1">
          <mxGeometry x="259" y="590" width="120" height="120" as="geometry" />
        </mxCell>
        <mxCell id="xiwiBXfIHb9HTJqX0gxW-36" value="分库分表&lt;br&gt;orm/jdbc" style="rounded=0;whiteSpace=wrap;html=1;" parent="1" vertex="1">
          <mxGeometry x="270" y="650" width="97" height="50" as="geometry" />
        </mxCell>
        <mxCell id="xiwiBXfIHb9HTJqX0gxW-54" style="edgeStyle=orthogonalEdgeStyle;curved=1;rounded=0;orthogonalLoop=1;jettySize=auto;html=1;entryX=0.5;entryY=0;entryDx=0;entryDy=0;entryPerimeter=0;exitX=0.5;exitY=1;exitDx=0;exitDy=0;" parent="1" source="xiwiBXfIHb9HTJqX0gxW-37" target="xiwiBXfIHb9HTJqX0gxW-13" edge="1">
          <mxGeometry relative="1" as="geometry" />
        </mxCell>
        <mxCell id="xiwiBXfIHb9HTJqX0gxW-37" value="app-1" style="rounded=0;whiteSpace=wrap;html=1;verticalAlign=top;" parent="1" vertex="1">
          <mxGeometry x="419" y="590" width="120" height="120" as="geometry" />
        </mxCell>
        <mxCell id="xiwiBXfIHb9HTJqX0gxW-38" value="分库分表&lt;br&gt;orm/jdbc" style="rounded=0;whiteSpace=wrap;html=1;" parent="1" vertex="1">
          <mxGeometry x="430" y="650" width="97" height="50" as="geometry" />
        </mxCell>
        <mxCell id="xiwiBXfIHb9HTJqX0gxW-55" style="edgeStyle=orthogonalEdgeStyle;curved=1;rounded=0;orthogonalLoop=1;jettySize=auto;html=1;entryX=0.5;entryY=0;entryDx=0;entryDy=0;entryPerimeter=0;exitX=0.5;exitY=1;exitDx=0;exitDy=0;" parent="1" source="xiwiBXfIHb9HTJqX0gxW-39" target="xiwiBXfIHb9HTJqX0gxW-15" edge="1">
          <mxGeometry relative="1" as="geometry" />
        </mxCell>
        <mxCell id="xiwiBXfIHb9HTJqX0gxW-56" style="edgeStyle=orthogonalEdgeStyle;curved=1;rounded=0;orthogonalLoop=1;jettySize=auto;html=1;entryX=0.5;entryY=0;entryDx=0;entryDy=0;entryPerimeter=0;" parent="1" source="xiwiBXfIHb9HTJqX0gxW-39" target="xiwiBXfIHb9HTJqX0gxW-16" edge="1">
          <mxGeometry relative="1" as="geometry" />
        </mxCell>
        <mxCell id="xiwiBXfIHb9HTJqX0gxW-39" value="app-1" style="rounded=0;whiteSpace=wrap;html=1;verticalAlign=top;" parent="1" vertex="1">
          <mxGeometry x="578" y="590" width="120" height="120" as="geometry" />
        </mxCell>
        <mxCell id="xiwiBXfIHb9HTJqX0gxW-40" value="分库分表&lt;br&gt;orm/jdbc" style="rounded=0;whiteSpace=wrap;html=1;" parent="1" vertex="1">
          <mxGeometry x="589" y="650" width="97" height="50" as="geometry" />
        </mxCell>
        <mxCell id="xiwiBXfIHb9HTJqX0gxW-91" style="edgeStyle=orthogonalEdgeStyle;curved=1;rounded=0;orthogonalLoop=1;jettySize=auto;html=1;entryX=0.625;entryY=0.2;entryDx=0;entryDy=0;entryPerimeter=0;exitX=0.5;exitY=1;exitDx=0;exitDy=0;strokeColor=#67AB9F;strokeWidth=4;" parent="1" source="xiwiBXfIHb9HTJqX0gxW-75" target="xiwiBXfIHb9HTJqX0gxW-79" edge="1">
          <mxGeometry relative="1" as="geometry" />
        </mxCell>
        <mxCell id="xiwiBXfIHb9HTJqX0gxW-75" value="青铜租户" style="rounded=0;whiteSpace=wrap;html=1;fillColor=#67AB9F;" parent="1" vertex="1">
          <mxGeometry x="116" y="2450" width="120" height="60" as="geometry" />
        </mxCell>
        <mxCell id="xiwiBXfIHb9HTJqX0gxW-96" style="edgeStyle=orthogonalEdgeStyle;curved=1;rounded=0;orthogonalLoop=1;jettySize=auto;html=1;entryX=0.625;entryY=0.2;entryDx=0;entryDy=0;entryPerimeter=0;strokeColor=#CCCCCC;strokeWidth=4;" parent="1" source="xiwiBXfIHb9HTJqX0gxW-76" target="xiwiBXfIHb9HTJqX0gxW-79" edge="1">
          <mxGeometry relative="1" as="geometry" />
        </mxCell>
        <mxCell id="xiwiBXfIHb9HTJqX0gxW-76" value="白银租户" style="rounded=0;whiteSpace=wrap;html=1;fillColor=#CCCCCC;" parent="1" vertex="1">
          <mxGeometry x="360" y="2450" width="120" height="60" as="geometry" />
        </mxCell>
        <mxCell id="xiwiBXfIHb9HTJqX0gxW-100" style="edgeStyle=orthogonalEdgeStyle;curved=1;rounded=0;orthogonalLoop=1;jettySize=auto;html=1;entryX=0.625;entryY=0.2;entryDx=0;entryDy=0;entryPerimeter=0;strokeColor=#FFB366;exitX=0.5;exitY=1;exitDx=0;exitDy=0;strokeWidth=4;" parent="1" source="xiwiBXfIHb9HTJqX0gxW-77" target="xiwiBXfIHb9HTJqX0gxW-79" edge="1">
          <mxGeometry relative="1" as="geometry" />
        </mxCell>
        <mxCell id="xiwiBXfIHb9HTJqX0gxW-77" value="黄金租户" style="rounded=0;whiteSpace=wrap;html=1;fillColor=#FFB366;" parent="1" vertex="1">
          <mxGeometry x="588" y="2450" width="120" height="60" as="geometry" />
        </mxCell>
        <mxCell id="xiwiBXfIHb9HTJqX0gxW-92" style="edgeStyle=orthogonalEdgeStyle;curved=1;rounded=0;orthogonalLoop=1;jettySize=auto;html=1;entryX=0.25;entryY=0;entryDx=0;entryDy=0;strokeColor=#67AB9F;strokeWidth=4;" parent="1" source="xiwiBXfIHb9HTJqX0gxW-79" target="xiwiBXfIHb9HTJqX0gxW-81" edge="1">
          <mxGeometry relative="1" as="geometry" />
        </mxCell>
        <mxCell id="xiwiBXfIHb9HTJqX0gxW-97" style="edgeStyle=orthogonalEdgeStyle;curved=1;rounded=0;orthogonalLoop=1;jettySize=auto;html=1;entryX=0.5;entryY=0;entryDx=0;entryDy=0;strokeColor=#CCCCCC;strokeWidth=4;" parent="1" source="xiwiBXfIHb9HTJqX0gxW-79" target="xiwiBXfIHb9HTJqX0gxW-81" edge="1">
          <mxGeometry relative="1" as="geometry" />
        </mxCell>
        <mxCell id="xiwiBXfIHb9HTJqX0gxW-101" style="edgeStyle=orthogonalEdgeStyle;curved=1;rounded=0;orthogonalLoop=1;jettySize=auto;html=1;entryX=0.75;entryY=0;entryDx=0;entryDy=0;strokeColor=#FFB366;strokeWidth=4;" parent="1" source="xiwiBXfIHb9HTJqX0gxW-79" target="xiwiBXfIHb9HTJqX0gxW-81" edge="1">
          <mxGeometry relative="1" as="geometry" />
        </mxCell>
        <mxCell id="xiwiBXfIHb9HTJqX0gxW-79" value="公网" style="ellipse;shape=cloud;whiteSpace=wrap;html=1;" parent="1" vertex="1">
          <mxGeometry x="356" y="2570" width="120" height="80" as="geometry" />
        </mxCell>
        <mxCell id="xiwiBXfIHb9HTJqX0gxW-80" value="" style="rounded=0;whiteSpace=wrap;html=1;" parent="1" vertex="1">
          <mxGeometry x="41" y="2740" width="749" height="460" as="geometry" />
        </mxCell>
        <mxCell id="xiwiBXfIHb9HTJqX0gxW-94" style="edgeStyle=orthogonalEdgeStyle;curved=1;rounded=0;orthogonalLoop=1;jettySize=auto;html=1;entryX=0.5;entryY=0;entryDx=0;entryDy=0;strokeColor=#67AB9F;exitX=0.5;exitY=1;exitDx=0;exitDy=0;strokeWidth=4;" parent="1" source="xiwiBXfIHb9HTJqX0gxW-81" target="xiwiBXfIHb9HTJqX0gxW-83" edge="1">
          <mxGeometry relative="1" as="geometry" />
        </mxCell>
        <mxCell id="xiwiBXfIHb9HTJqX0gxW-98" style="edgeStyle=orthogonalEdgeStyle;curved=1;rounded=0;orthogonalLoop=1;jettySize=auto;html=1;entryX=0.5;entryY=0;entryDx=0;entryDy=0;strokeColor=#CCCCCC;strokeWidth=4;" parent="1" source="xiwiBXfIHb9HTJqX0gxW-81" target="xiwiBXfIHb9HTJqX0gxW-86" edge="1">
          <mxGeometry relative="1" as="geometry" />
        </mxCell>
        <mxCell id="xiwiBXfIHb9HTJqX0gxW-102" style="edgeStyle=orthogonalEdgeStyle;curved=1;rounded=0;orthogonalLoop=1;jettySize=auto;html=1;entryX=0.5;entryY=0;entryDx=0;entryDy=0;strokeColor=#FFB366;exitX=0.5;exitY=1;exitDx=0;exitDy=0;strokeWidth=4;" parent="1" source="xiwiBXfIHb9HTJqX0gxW-81" target="xiwiBXfIHb9HTJqX0gxW-89" edge="1">
          <mxGeometry relative="1" as="geometry" />
        </mxCell>
        <mxCell id="xiwiBXfIHb9HTJqX0gxW-81" value="集群入口" style="rounded=0;whiteSpace=wrap;html=1;" parent="1" vertex="1">
          <mxGeometry x="356" y="2710" width="120" height="60" as="geometry" />
        </mxCell>
        <mxCell id="xiwiBXfIHb9HTJqX0gxW-82" value="青铜组" style="rounded=0;whiteSpace=wrap;html=1;verticalAlign=top;align=left;strokeColor=#67AB9F;fillColor=none;" parent="1" vertex="1">
          <mxGeometry x="92" y="2820" width="200" height="360" as="geometry" />
        </mxCell>
        <mxCell id="xiwiBXfIHb9HTJqX0gxW-95" style="edgeStyle=orthogonalEdgeStyle;curved=1;rounded=0;orthogonalLoop=1;jettySize=auto;html=1;entryX=0.5;entryY=0;entryDx=0;entryDy=0;entryPerimeter=0;strokeColor=#67AB9F;strokeWidth=4;" parent="1" source="xiwiBXfIHb9HTJqX0gxW-83" target="xiwiBXfIHb9HTJqX0gxW-84" edge="1">
          <mxGeometry relative="1" as="geometry" />
        </mxCell>
        <mxCell id="xiwiBXfIHb9HTJqX0gxW-83" value="app-青铜-1~10" style="rounded=0;whiteSpace=wrap;html=1;fillColor=#67AB9F;" parent="1" vertex="1">
          <mxGeometry x="132" y="2893" width="120" height="60" as="geometry" />
        </mxCell>
        <mxCell id="xiwiBXfIHb9HTJqX0gxW-84" value="数据库-青铜-1~10" style="shape=cylinder3;whiteSpace=wrap;html=1;boundedLbl=1;backgroundOutline=1;size=15;fillColor=#67AB9F;" parent="1" vertex="1">
          <mxGeometry x="132" y="3070" width="120" height="80" as="geometry" />
        </mxCell>
        <mxCell id="xiwiBXfIHb9HTJqX0gxW-85" value="青铜组" style="rounded=0;whiteSpace=wrap;html=1;verticalAlign=top;align=left;fillColor=none;" parent="1" vertex="1">
          <mxGeometry x="320" y="2820" width="200" height="360" as="geometry" />
        </mxCell>
        <mxCell id="xiwiBXfIHb9HTJqX0gxW-99" style="edgeStyle=orthogonalEdgeStyle;curved=1;rounded=0;orthogonalLoop=1;jettySize=auto;html=1;entryX=0.5;entryY=0;entryDx=0;entryDy=0;entryPerimeter=0;strokeColor=#CCCCCC;strokeWidth=4;" parent="1" source="xiwiBXfIHb9HTJqX0gxW-86" target="xiwiBXfIHb9HTJqX0gxW-87" edge="1">
          <mxGeometry relative="1" as="geometry" />
        </mxCell>
        <mxCell id="xiwiBXfIHb9HTJqX0gxW-86" value="app-白银-1~10" style="rounded=0;whiteSpace=wrap;html=1;fillColor=#CCCCCC;" parent="1" vertex="1">
          <mxGeometry x="360" y="2893" width="120" height="60" as="geometry" />
        </mxCell>
        <mxCell id="xiwiBXfIHb9HTJqX0gxW-87" value="数据库-白银-1~10" style="shape=cylinder3;whiteSpace=wrap;html=1;boundedLbl=1;backgroundOutline=1;size=15;fillColor=#CCCCCC;" parent="1" vertex="1">
          <mxGeometry x="360" y="3070" width="120" height="80" as="geometry" />
        </mxCell>
        <mxCell id="xiwiBXfIHb9HTJqX0gxW-88" value="青铜组" style="rounded=0;whiteSpace=wrap;html=1;verticalAlign=top;align=left;fillColor=none;" parent="1" vertex="1">
          <mxGeometry x="548" y="2820" width="200" height="360" as="geometry" />
        </mxCell>
        <mxCell id="xiwiBXfIHb9HTJqX0gxW-103" style="edgeStyle=orthogonalEdgeStyle;curved=1;rounded=0;orthogonalLoop=1;jettySize=auto;html=1;strokeColor=#FFB366;strokeWidth=4;" parent="1" source="xiwiBXfIHb9HTJqX0gxW-89" target="xiwiBXfIHb9HTJqX0gxW-90" edge="1">
          <mxGeometry relative="1" as="geometry" />
        </mxCell>
        <mxCell id="xiwiBXfIHb9HTJqX0gxW-89" value="app-黄金-1~10" style="rounded=0;whiteSpace=wrap;html=1;fillColor=#FFB366;" parent="1" vertex="1">
          <mxGeometry x="588" y="2893" width="120" height="60" as="geometry" />
        </mxCell>
        <mxCell id="xiwiBXfIHb9HTJqX0gxW-90" value="数据库-黄金-1~10" style="shape=cylinder3;whiteSpace=wrap;html=1;boundedLbl=1;backgroundOutline=1;size=15;fillColor=#FFB366;" parent="1" vertex="1">
          <mxGeometry x="588" y="3070" width="120" height="80" as="geometry" />
        </mxCell>
      </root>
    </mxGraphModel>
  </diagram>
</mxfile>
